<?xml version="1.0" encoding="UTF-8" standalone="no"?>
<!-- Generator: Adobe Illustrator 18.0.0, SVG Export Plug-In . SVG Version: 6.00 Build 0)  -->

<svg
   xmlns:dc="http://purl.org/dc/elements/1.1/"
   xmlns:cc="http://creativecommons.org/ns#"
   xmlns:rdf="http://www.w3.org/1999/02/22-rdf-syntax-ns#"
   xmlns:svg="http://www.w3.org/2000/svg"
   xmlns="http://www.w3.org/2000/svg"
   xmlns:sodipodi="http://sodipodi.sourceforge.net/DTD/sodipodi-0.dtd"
   xmlns:inkscape="http://www.inkscape.org/namespaces/inkscape"
   version="1.1"
   id="Capa_1"
   x="0px"
   y="0px"
   viewBox="0 0 54.264 54.264"
   xml:space="preserve"
   sodipodi:docname="knife.svg"
   style="enable-background:new 0 0 54.264 54.264;"
   inkscape:version="0.92.3 (2405546, 2018-03-11)"><metadata
   id="metadata49"><rdf:RDF><cc:Work
       rdf:about=""><dc:format>image/svg+xml</dc:format><dc:type
         rdf:resource="http://purl.org/dc/dcmitype/StillImage" /><dc:title></dc:title></cc:Work></rdf:RDF></metadata><defs
   id="defs47" /><sodipodi:namedview
   pagecolor="#ffffff"
   bordercolor="#666666"
   borderopacity="1"
   objecttolerance="10"
   gridtolerance="10"
   guidetolerance="10"
   inkscape:pageopacity="0"
   inkscape:pageshadow="2"
   inkscape:window-width="1920"
   inkscape:window-height="1052"
   id="namedview45"
   showgrid="false"
   inkscape:zoom="4.3491081"
   inkscape:cx="27.132"
   inkscape:cy="27.132"
   inkscape:window-x="0"
   inkscape:window-y="0"
   inkscape:window-maximized="1"
   inkscape:current-layer="Capa_1" />
<g
   id="g12">
	<path
   style="fill:#A46F3E;"
   d="M32.051,25.37c0,0,4.991-0.346,9.472-3.666c0,0,5.465-4.594,8.451-9.612   c0,0,0.719-1.881,3.624-1.302c0,0,2.437-1.668-2.011-6.117L49.264,2.35L29.148,22.467L32.051,25.37z"
   id="path2" />
	<path
   style="fill:#D2D5D7;"
   d="M36.948,30.267C20.837,46.378,8.262,53.513,0,51.615l29.148-29.148L36.948,30.267z"
   id="path4" />
	<circle
   style="fill:#D2D5D7;"
   cx="35.951"
   cy="20.414"
   r="1.5"
   id="circle6" />
	<circle
   style="fill:#D2D5D7;"
   cx="47.951"
   cy="8.414"
   r="1.5"
   id="circle8" />
	<path
   style="fill:#E6E6E6;"
   d="M33.759,27.192C19.374,40.978,13.572,44.486,4.467,47.148L1.614,50   c11.375-2.942,17.194-5.709,33.529-21.365L33.759,27.192z"
   id="path10" />
</g>
<g
   id="g14">
</g>
<g
   id="g16">
</g>
<g
   id="g18">
</g>
<g
   id="g20">
</g>
<g
   id="g22">
</g>
<g
   id="g24">
</g>
<g
   id="g26">
</g>
<g
   id="g28">
</g>
<g
   id="g30">
</g>
<g
   id="g32">
</g>
<g
   id="g34">
</g>
<g
   id="g36">
</g>
<g
   id="g38">
</g>
<g
   id="g40">
</g>
<g
   id="g42">
</g>
</svg>