<?xml version="1.0" encoding="UTF-8" standalone="no"?>
<!-- Generator: Adobe Illustrator 19.0.0, SVG Export Plug-In . SVG Version: 6.00 Build 0)  -->

<svg
   xmlns:dc="http://purl.org/dc/elements/1.1/"
   xmlns:cc="http://creativecommons.org/ns#"
   xmlns:rdf="http://www.w3.org/1999/02/22-rdf-syntax-ns#"
   xmlns:svg="http://www.w3.org/2000/svg"
   xmlns="http://www.w3.org/2000/svg"
   xmlns:sodipodi="http://sodipodi.sourceforge.net/DTD/sodipodi-0.dtd"
   xmlns:inkscape="http://www.inkscape.org/namespaces/inkscape"
   version="1.1"
   id="Capa_1"
   x="0px"
   y="0px"
   viewBox="0 0 512 512"
   style="enable-background:new 0 0 512 512;"
   xml:space="preserve"
   sodipodi:docname="sunny.svg"
   inkscape:version="0.92.3 (2405546, 2018-03-11)"><metadata
   id="metadata43"><rdf:RDF><cc:Work
       rdf:about=""><dc:format>image/svg+xml</dc:format><dc:type
         rdf:resource="http://purl.org/dc/dcmitype/StillImage" /></cc:Work></rdf:RDF></metadata><defs
   id="defs41" /><sodipodi:namedview
   pagecolor="#ffffff"
   bordercolor="#666666"
   borderopacity="1"
   objecttolerance="10"
   gridtolerance="10"
   guidetolerance="10"
   inkscape:pageopacity="0"
   inkscape:pageshadow="2"
   inkscape:window-width="1920"
   inkscape:window-height="1052"
   id="namedview39"
   showgrid="false"
   inkscape:zoom="1.3037281"
   inkscape:cx="200.62312"
   inkscape:cy="221.40812"
   inkscape:window-x="0"
   inkscape:window-y="0"
   inkscape:window-maximized="1"
   inkscape:current-layer="Capa_1" />
<path
   style="fill:#FFA600;"
   d="M507.834,301.608l-54.769-48.312l52.832-50.399c1.941-1.852,2.74-4.591,2.099-7.189  c-0.642-2.597-2.629-4.655-5.211-5.401l-70.316-20.292l25.988-68.056c0.955-2.5,0.495-5.316-1.204-7.389  c-1.7-2.072-4.383-3.085-7.038-2.657l-72.274,11.652l-5.878-72.561c-0.216-2.666-1.846-5.015-4.275-6.161  c-2.429-1.146-5.291-0.917-7.504,0.601l-60.266,41.342L263.409,3.742C262.064,1.426,259.579,0,256.889,0  c-2.69,0-5.174,1.426-6.519,3.742L208.347,76.11l-72.69-41.953c-2.327-1.343-5.197-1.349-7.528-0.018  c-2.333,1.331-3.773,3.799-3.78,6.473l-0.176,72.795l-72.965-6.014c-2.675-0.22-5.275,0.997-6.807,3.194  c-1.533,2.197-1.771,5.041-0.622,7.459l31.242,65.835L6.508,209.562c-2.516,0.943-4.335,3.15-4.773,5.789  c-0.438,2.638,0.575,5.308,2.656,7.003l56.619,46.152l-50.813,52.41c-1.866,1.925-2.559,4.694-1.816,7.264  c0.744,2.57,2.81,4.55,5.419,5.194l71.055,17.551L61.56,419.936c-0.856,2.535-0.286,5.331,1.494,7.336  c1.781,2.005,4.502,2.913,7.137,2.382l71.76-14.443l8.721,72.278c0.319,2.655,2.041,4.938,4.513,5.99  c2.474,1.052,5.323,0.712,7.475-0.891l58.596-43.647l39.055,59.566c1.382,2.179,3.789,3.492,6.367,3.492  c0.098,0,0.196-0.002,0.295-0.006c2.687-0.104,5.115-1.626,6.368-3.992l34.107-62.405l61.839,38.974  c2.273,1.432,5.137,1.55,7.522,0.31c2.382-1.24,3.919-3.65,4.03-6.322l3.031-72.734l72.674,8.84c2.664,0.324,5.31-0.791,6.928-2.927  c1.618-2.137,1.966-4.969,0.914-7.43l-28.636-66.997l69.465-23.003c2.552-0.845,4.456-2.979,4.997-5.599  C510.752,306.09,509.845,303.383,507.834,301.608z"
   id="path2" />
<ellipse
   style="fill:#FFDB2D;"
   cx="254.35"
   cy="254.691"
   rx="155.069"
   ry="154.949"
   id="ellipse4" />

<g
   id="g8">
</g>
<g
   id="g10">
</g>
<g
   id="g12">
</g>
<g
   id="g14">
</g>
<g
   id="g16">
</g>
<g
   id="g18">
</g>
<g
   id="g20">
</g>
<g
   id="g22">
</g>
<g
   id="g24">
</g>
<g
   id="g26">
</g>
<g
   id="g28">
</g>
<g
   id="g30">
</g>
<g
   id="g32">
</g>
<g
   id="g34">
</g>
<g
   id="g36">
</g>
</svg>